<svg version="1.1" id="Layer_1" xmlns="http://www.w3.org/2000/svg" xmlns:xlink="http://www.w3.org/1999/xlink" x="0px" y="0px"
	 viewBox="0 0 1200 1200" enable-background="new 0 0 1200 1200" xml:space="preserve">
<g>
	<path fill="#81ABD9" d="M1150,351.256c0-33.818-37.486-71.523-67.622-71.523H518.633c-35.781,0-69.595-17.201-91.79-46.692
		l-16.346-22.894c-25.834-34.326-58.333-44.057-99.98-44.057H146.753c-53.265,0-96.445,29.939-96.445,85.912v27.731H50v189.112
		c0.004-72.077,58.434-130.506,130.512-130.506h838.975c72.08,0,130.512,58.432,130.512,130.512v368.989H1150V351.256z"/>
	<path fill="#A0C6E8" d="M1019.487,338.34H180.512c-72.077,0-130.508,58.428-130.512,130.506c0,0.002,0,0.004,0,0.007v434.546
		c0,72.08,58.432,130.512,130.512,130.512h838.975c72.08,0,130.512-58.432,130.512-130.512v-65.557V468.852
		C1149.999,396.772,1091.567,338.34,1019.487,338.34z"/>
</g>
</svg>
